<svg version="1.1" id="Layer_1" xmlns="http://www.w3.org/2000/svg" xmlns:xlink="http://www.w3.org/1999/xlink" x="0px" y="0px"
	 width="100%" viewBox="0 0 1024 1024" enable-background="new 0 0 1024 1024" xml:space="preserve">
<path fill="#FFF" opacity="1.000000" stroke="none" 
	d="
M687.066406,644.692627 
	C694.220520,644.695068 700.887268,644.636414 707.552246,644.718018 
	C713.064270,644.785522 716.464355,647.987427 716.299316,652.745361 
	C716.141357,657.297913 713.578491,659.313110 707.649048,659.348938 
	C697.816956,659.408386 687.984131,659.443970 678.152405,659.373291 
	C674.775330,659.348999 672.643677,660.409973 671.418762,663.873596 
	C653.824951,713.621643 617.902710,743.991394 568.585571,759.263062 
	C522.559631,773.515503 477.443695,770.452087 434.365601,748.182129 
	C407.540039,734.314087 386.551422,714.452515 375.370880,685.623535 
	C372.894623,679.238525 371.054993,672.555298 370.862000,665.744873 
	C370.718292,660.673462 368.354950,659.404358 364.118622,659.405518 
	C354.786255,659.408020 345.453888,659.416443 336.121521,659.404297 
	C330.955444,659.397644 325.785645,659.467529 320.624451,659.295593 
	C315.465942,659.123718 312.565399,656.222900 312.662933,651.687439 
	C312.759491,647.194885 315.250031,644.771851 320.571381,644.729370 
	C336.235504,644.604370 351.902618,644.547974 367.565125,644.741699 
	C371.520416,644.790710 373.614624,643.676514 374.778778,639.725403 
	C377.131195,631.741394 381.840393,625.090027 387.652222,619.190369 
	C388.539673,618.289551 389.790924,617.564758 389.764038,615.921021 
	C387.981720,614.648804 385.926270,615.218201 384.011475,615.211914 
	C356.681305,615.122681 329.350922,615.108582 302.020844,615.005249 
	C299.374420,614.995239 296.643250,614.843018 294.103394,614.177124 
	C289.655243,613.011047 288.279907,609.586914 288.688324,605.298889 
	C289.085907,601.124756 291.861481,599.686584 295.600952,599.684021 
	C331.762573,599.659058 367.924225,599.669434 404.085846,599.669739 
	C412.689575,603.699951 422.063141,601.680664 430.964600,603.114746 
	C449.963043,606.175354 462.389343,618.227051 471.132904,634.518921 
	C476.488312,644.497620 483.517639,652.663757 493.712982,657.796570 
	C518.337585,670.193848 550.576538,658.615295 557.105896,633.288818 
	C561.782532,615.148865 554.434265,601.525574 540.974976,590.206909 
	C530.312378,581.240112 517.215454,576.883850 504.762085,571.361389 
	C476.761200,558.944397 448.030914,548.148376 421.004700,533.572083 
	C419.189240,532.592896 417.291748,532.288818 415.239716,532.292908 
	C393.908630,532.335571 372.577332,532.363953 351.246429,532.287415 
	C348.268707,532.276733 346.447449,532.893433 345.208344,536.046204 
	C341.389008,545.764160 333.588043,550.502075 323.517242,550.948792 
	C314.896149,551.331238 307.411255,547.462830 303.616486,539.880188 
	C300.106842,532.867249 295.246185,531.593567 288.465790,532.157776 
	C284.861755,532.457642 281.149475,532.671082 277.561432,531.460632 
	C273.894012,530.223511 272.187469,527.779663 272.472198,523.920288 
	C272.765686,519.941406 274.992645,518.090576 278.868011,517.608459 
	C284.686707,516.884460 290.517914,517.163513 296.343536,517.094788 
	C299.219116,517.060852 301.240692,516.183838 302.969666,513.613770 
	C312.649872,499.224640 332.506409,498.771393 342.660980,512.786255 
	C344.927002,515.913696 347.143646,517.522156 351.120758,517.484741 
	C364.770508,517.356140 378.423309,517.579102 392.075104,517.616394 
	C394.023621,517.621704 396.069672,517.710754 397.683533,516.247253 
	C397.738983,514.598633 396.447052,513.885864 395.546875,512.998047 
	C388.166870,505.719360 381.382751,497.939209 375.923248,489.107513 
	C374.130219,486.206970 371.939667,485.221558 368.558472,485.233307 
	C342.228302,485.325043 315.897491,485.249115 289.566956,485.185669 
	C286.247162,485.177673 282.894257,485.412170 279.639069,484.412567 
	C275.988068,483.291382 274.003784,480.616150 274.011536,477.034027 
	C274.019470,473.381592 275.946747,470.705872 279.992310,470.295776 
	C282.136047,470.078461 284.285309,469.760773 286.432556,469.756775 
	C310.263214,469.712585 334.093933,469.720978 357.924652,469.715271 
	C360.059296,469.714752 362.193970,469.715179 364.052246,469.715179 
	C365.466034,467.348236 364.769257,465.593811 364.176331,463.916626 
	C362.233887,458.421997 360.385956,452.900116 359.306122,447.162567 
	C358.685181,443.863068 356.882233,442.203430 353.469727,442.393311 
	C352.639648,442.439514 351.802521,442.348877 350.970947,442.380890 
	C347.987854,442.495667 344.732361,441.927917 342.092804,442.946930 
	C338.825684,444.208313 340.770782,448.010956 340.047882,450.617950 
	C337.368347,460.281067 327.163452,468.345551 317.170349,468.407013 
	C306.924011,468.470032 296.513428,460.309967 293.744934,449.893799 
	C292.825134,446.432983 292.640961,442.936707 288.825714,440.754486 
	C286.386383,439.359222 286.238281,436.247040 287.269867,433.497742 
	C288.358978,430.595276 290.421387,428.640350 293.564209,428.603302 
	C296.618774,428.567322 298.714050,427.321594 300.928925,425.284882 
	C309.259766,417.624420 322.653931,417.629547 332.621277,425.519501 
	C339.614075,431.054810 347.182251,428.203339 354.587494,427.899017 
	C356.712280,427.811737 356.645142,425.639069 356.680206,423.943939 
	C356.865875,414.965546 356.124054,405.962097 357.619019,397.018433 
	C358.283234,393.044586 356.552856,391.219757 352.339233,391.287262 
	C342.509552,391.444763 332.675446,391.315948 322.843109,391.320801 
	C320.665619,391.321869 318.523987,391.234192 316.471802,390.358276 
	C312.899200,388.833405 311.467407,385.932129 311.860779,382.333130 
	C312.249664,378.775238 314.425354,376.948395 318.216370,376.571960 
	C331.018677,375.300812 343.850861,376.023438 356.664978,375.808441 
	C360.439789,375.745056 362.210938,374.536499 363.470459,370.928894 
	C382.409302,316.683624 421.242371,284.428497 476.341461,271.991486 
	C523.469910,261.353607 568.501221,268.156830 609.213501,295.221924 
	C632.182251,310.491302 649.114990,330.909668 655.659058,358.557129 
	C656.614380,362.592957 657.591309,366.692383 657.300232,370.871460 
	C657.040527,374.601654 658.508484,375.824554 662.188110,375.785156 
	C676.851685,375.628296 691.517761,375.711792 706.182922,375.682251 
	C708.534973,375.677521 710.869507,375.713501 712.988525,376.891998 
	C715.868164,378.493530 717.359985,381.030792 717.226257,384.271667 
	C717.104492,387.221893 715.252808,389.180176 712.600586,390.237793 
	C711.233032,390.783173 709.706360,391.226501 708.254456,391.217926 
	C692.093445,391.122314 675.915405,391.934265 659.779968,390.795471 
	C656.029297,390.530762 653.974915,391.488312 652.150513,394.650757 
	C647.360840,402.953003 641.356567,410.479279 633.489624,415.898590 
	C610.061340,432.037659 579.389343,425.500793 563.518738,401.301849 
	C557.648438,392.351074 551.707458,383.593414 542.388672,377.675171 
	C526.160522,367.368744 501.162109,367.857056 486.452240,380.103271 
	C470.623322,393.281097 468.049805,412.064758 479.415253,431.331787 
	C487.633881,445.264191 501.056702,452.611328 515.375122,458.663269 
	C521.507263,461.255066 527.650696,463.824768 533.724670,466.547943 
	C538.982788,468.905396 544.368164,469.815155 550.177185,469.802429 
	C614.836914,469.660980 679.497070,469.693451 744.157104,469.680695 
	C745.490112,469.680450 746.829163,469.623108 748.155090,469.725616 
	C752.204651,470.038727 754.559082,472.373596 755.228882,476.250305 
	C755.897827,480.121887 753.812927,482.626678 750.486816,484.140289 
	C747.685303,485.415161 744.634277,485.257874 741.629822,485.258026 
	C687.469604,485.260559 633.309326,485.269623 579.149109,485.283691 
	C578.843567,485.283783 578.538086,485.374023 577.379761,485.556519 
	C585.708557,489.332520 593.426819,492.705902 601.034729,496.311981 
	C610.995972,501.033508 620.424316,506.652313 628.884460,513.783264 
	C631.538330,516.020203 634.476135,517.132935 638.024353,517.113586 
	C672.351257,516.926636 706.678528,516.823792 741.005737,516.698914 
	C743.338623,516.690430 745.674438,516.622375 748.003723,516.714050 
	C753.209229,516.918884 756.919312,520.305725 757.040955,524.862183 
	C757.154419,529.109680 753.608704,532.227417 748.132446,532.285645 
	C737.801392,532.395569 727.468262,532.318970 717.135986,532.313782 
	C696.138123,532.303345 675.140259,532.284119 654.142395,532.285583 
	C652.538513,532.285706 650.934631,532.420654 648.878662,532.513367 
	C649.845276,535.478760 651.566284,537.273926 653.079407,539.177124 
	C658.182312,545.595398 662.805420,552.355225 665.867554,559.969055 
	C667.289246,563.503845 669.214111,564.838623 672.947327,564.630859 
	C695.086975,563.399170 717.254822,563.963623 739.411255,563.771057 
	C742.236206,563.746521 745.039185,563.646729 747.825806,564.515442 
	C751.683289,565.718018 753.911011,568.324890 753.692627,572.188477 
	C753.471741,576.095459 750.732971,578.429932 746.921570,579.138428 
	C745.142029,579.469177 743.267639,579.334778 741.436279,579.335510 
	C720.771729,579.343872 700.107178,579.325562 679.442627,579.354553 
	C677.521973,579.357239 675.457703,578.883911 673.383606,580.520203 
	C674.622009,585.962708 675.920471,591.408813 677.079224,596.884521 
	C677.568359,599.196106 679.006775,599.714172 681.071167,599.654663 
	C695.889893,599.227112 710.727966,600.255554 725.537598,599.062134 
	C728.869690,598.793579 732.199524,598.663208 735.423462,599.826843 
	C739.022278,601.125916 740.686157,603.774475 740.575562,607.513855 
	C740.469360,611.104370 738.676636,613.546936 735.110840,614.308350 
	C732.850403,614.791077 730.509277,615.132324 728.204407,615.131897 
	C713.540100,615.129272 698.873230,615.142700 684.212891,614.858765 
	C679.692627,614.771240 678.073914,616.146790 678.158875,620.834778 
	C678.266907,626.795410 677.664917,632.799072 676.959045,638.735474 
	C676.283386,644.418030 676.251526,644.626587 682.093384,644.685242 
	C683.588196,644.700256 685.083252,644.690613 687.066406,644.692627 
z"/>
<path fill="#FFF" opacity="1.000000" stroke="none" 
	d="
M330.999878,579.346313 
	C315.851624,579.338318 301.203400,579.324158 286.555145,579.329651 
	C284.213928,579.330505 281.884552,579.315979 279.708435,578.293823 
	C276.512390,576.792542 274.775757,574.152344 275.037354,570.738831 
	C275.284943,567.508057 277.218903,565.192627 280.618652,564.556580 
	C282.404694,564.222412 284.221008,563.835876 286.023682,563.835510 
	C340.284760,563.824158 394.545837,563.847717 448.806885,563.916321 
	C451.453949,563.919678 454.096069,564.452271 456.748169,564.609863 
	C460.886566,564.855774 462.789673,567.616882 463.031250,571.125183 
	C463.275635,574.674255 461.340088,577.628113 457.755157,578.715698 
	C455.741669,579.326538 453.492554,579.318787 451.349365,579.320557 
	C411.399567,579.353455 371.449738,579.345886 330.999878,579.346313 
z"/>
<path fill="#FFF" opacity="1.000000" stroke="none" 
	d="
M738.250122,429.140594 
	C742.129883,431.212860 743.020264,434.341675 742.068298,437.838287 
	C741.250488,440.841980 738.918701,442.417297 735.673340,442.394775 
	C733.035461,442.376465 732.291077,443.950012 732.344421,446.305420 
	C732.582336,456.823700 721.106506,467.520416 711.891357,468.343994 
	C699.672241,469.436066 687.634827,461.782684 684.960876,450.013824 
	C683.611084,444.072784 681.466919,441.562103 675.242554,442.207001 
	C671.223755,442.623383 668.631836,439.976532 668.423279,435.847870 
	C668.219910,431.821716 670.191223,428.711578 674.379517,428.689240 
	C683.845215,428.638672 692.208252,426.029846 700.522949,421.329590 
	C707.248291,417.527771 715.178894,419.026154 721.359680,423.555206 
	C726.491760,427.315735 731.687256,429.199127 738.250122,429.140594 
z"/>
<path fill="#FFF" opacity="1.000000" stroke="none" 
	d="
M740.577637,501.065918 
	C747.360657,500.643768 750.434509,503.039337 750.321838,508.212402 
	C750.217773,512.989990 746.922485,515.596497 741.675781,515.482483 
	C738.002747,515.402649 736.851074,512.859863 736.049683,510.165955 
	C734.849243,506.130432 736.283325,503.029175 740.577637,501.065918 
z"/>
<path fill="#FFF" opacity="1.000000" stroke="none" 
	d="
M697.463257,494.871277 
	C701.991577,494.327332 705.236572,495.585236 706.265320,499.927643 
	C707.110291,503.493835 706.262329,506.642761 702.387817,508.062714 
	C698.739624,509.399719 694.198364,507.756042 693.087646,504.427673 
	C691.710693,500.301666 692.732483,496.850983 697.463257,494.871277 
z"/>
<path fill="#FFF" opacity="1.000000" stroke="none" 
	d="
M357.151947,685.435059 
	C360.339294,687.622192 361.833374,690.264832 360.740051,693.706970 
	C359.965088,696.146729 358.442078,698.102844 355.557648,698.423462 
	C352.575256,698.755005 349.939606,698.287842 348.190216,695.514160 
	C346.486603,692.813110 346.730225,690.056213 348.429688,687.586182 
	C350.476044,684.611938 353.461853,684.087036 357.151947,685.435059 
z"/>
</svg>